<?xml version="1.0" encoding="UTF-8"?><svg id="a" xmlns="http://www.w3.org/2000/svg" viewBox="0 0 100 100"><path d="m92.5,58.4c-2-8.9-8.6-16.3-16.9-18.7-1.9-.6-3.7-.8-5.5-.8-2.6,0-4.9.6-6.9,1.7-4.5,2.4-7.1,7.5-6,12.1.7,3.2,2.9,5.5,4.7,7.4,1.3,1.4,2.5,2.7,3,4,.7,2.2,0,3.5-.5,4.3-2,2.8-5.9,4.1-9.1,5-4,1.1-8.4,1.8-12.6,1.8-2.4,0-4.8-.2-7.1-.6,1.4,2.9,3.8,5.3,6.9,6.4,4.7,1.7,10.8.1,15.5-1.3s9.2-3.5,12-7.4c2.1-3,2.6-6.6,1.4-10.3-.9-2.8-2.8-4.8-4.5-6.6-1.4-1.5-2.7-2.8-3-4.2-.4-1.6.8-3.7,2.6-4.7,1-.6,2.3-.8,3.7-.8s2.3.2,3.6.5c5.8,1.8,10.7,7.3,12.2,13.7,1.4,6.2-.2,13.3-4.2,19-6.2,8.9-16.9,14.4-28,14.4s-2.9,0-4.4-.3c-5.5-.8-10.4-3.4-13.9-7.4-5.9-6-5.6-14.5-5.6-14.5,0-1.9,0-3.9.4-5.8,3.4-18.1,20.6-27.7,38-36.1,9.6-4.6,14.2-11.9,12.2-19.4-1.4-5.4-6.6-9-13.9-9.5-1.1,0-2.2-.1-3.3-.1-14.4,0-30.9,6.9-42.1,17.6-4.7,4.5-8.3,9.6-10.8,15.2-4.4,10-6.3,25.7,2.6,36.7.9,1.1,1.9,2.2,3,3.2-2.5-7.8-3.5-17.5-2.3-26.2,1.1-9.2,5.5-17.6,12.2-23.9,9.8-9.4,24.8-15.7,37.4-15.7s1.8,0,2.7.1c2.1.2,6.9.9,7.9,4.5,1.6,6-5.4,10.1-8.5,11.6-17.6,8.4-35,18.2-40.6,36.4-2.6,8.3-2.1,18.2,2.3,25.9,4.5,7.9,12.4,13.1,21.4,14.4,1.7.2,3.5.4,5.2.4,13.3,0,26.1-6.6,33.6-17.3,5.2-7.4,7.1-16.3,5.3-24.4Z" fill="#4da8c0"/></svg>